<svg width="15" height="19" viewBox="0 0 15 19" fill="none" xmlns="http://www.w3.org/2000/svg">
<path d="M8.28383 5.37838L8.23042 5.39443V5.4502V16.8945V16.9695H8.30542H12.6992V18.1945H2.53667V16.9695H6.93042H7.00542V16.8945V5.4502V5.39443L6.95201 5.37838C6.58143 5.26699 6.24424 5.06546 5.97062 4.79184C5.697 4.51822 5.49547 4.18103 5.38409 3.81045L5.36803 3.75704H5.31226H0.81792V2.53204H5.31226H5.36817L5.38414 2.47846C5.52751 1.99737 5.82237 1.57541 6.22485 1.27538C6.62733 0.975353 7.11592 0.813281 7.61792 0.813281C8.11992 0.813281 8.60851 0.975353 9.01099 1.27538C9.41347 1.57541 9.70833 1.99737 9.8517 2.47846L9.86767 2.53204H9.92358H14.4179V3.75704H9.92358H9.86781L9.85176 3.81045C9.74037 4.18103 9.53884 4.51822 9.26522 4.79184C8.9916 5.06546 8.65441 5.26699 8.28383 5.37838ZM6.69811 2.52994C6.57655 2.71186 6.51167 2.92575 6.51167 3.14454C6.51167 3.43794 6.62822 3.71932 6.83568 3.92678C7.04315 4.13424 7.32452 4.25079 7.61792 4.25079C7.83672 4.25079 8.0506 4.18591 8.23252 4.06436C8.41444 3.9428 8.55623 3.77003 8.63996 3.56789C8.72369 3.36575 8.7456 3.14331 8.70291 2.92872C8.66023 2.71413 8.55487 2.51702 8.40016 2.36231C8.24544 2.20759 8.04833 2.10223 7.83374 2.05955C7.61915 2.01686 7.39672 2.03877 7.19458 2.1225C6.99244 2.20623 6.81966 2.34802 6.69811 2.52994Z" fill="#3765FF" stroke="white" stroke-width="0.15"/>
</svg>
