<svg width="21" height="11" viewBox="0 0 21 11" fill="none" xmlns="http://www.w3.org/2000/svg">
<path d="M7.25542 7.86984L7.23327 7.89184C6.48563 8.63442 5.47412 9.05037 4.42036 9.04856M7.25542 7.86984L4.40631 8.97356L4.40669 9.04856L4.42036 9.04856M7.25542 7.86984V7.83862V7.58047V7.5636L7.2482 7.54836L4.4982 1.74277L4.43042 1.59968L4.36264 1.74277L1.61264 7.54836L1.60542 7.5636V7.58047V7.88413V7.91608L1.62846 7.93821C2.3749 8.65542 3.37135 9.05368 4.4065 9.04856L7.25542 7.86984ZM4.42036 9.04856L4.42049 8.97356V9.04856H4.42036ZM19.6304 7.86984L19.6083 7.89184C18.8606 8.63442 17.8491 9.05037 16.7954 9.04856M19.6304 7.86984L16.7955 8.97356M19.6304 7.86984V7.83862V7.58047V7.5636L19.6232 7.54836L16.8732 1.74277L16.8054 1.59968L16.7376 1.74277L13.9876 7.54836L13.9804 7.5636V7.58047V7.88413V7.91608L14.0035 7.93821C14.7499 8.65542 15.7463 9.05368 16.7815 9.04856M19.6304 7.86984L16.7815 9.04856M16.7954 9.04856L16.7955 8.97356M16.7954 9.04856H16.7955V8.97356M16.7954 9.04856L16.7817 9.04856L16.7813 8.97356M16.7955 8.97356H16.7813M16.7813 8.97356V9.04856H16.7815M16.7813 8.97356L16.7815 9.04856M16.8054 1.77488L16.8469 1.86247L16.8732 1.80698L16.8054 1.77488ZM16.8054 1.77488L16.7376 1.80698L16.7639 1.86247L16.8054 1.77488ZM16.0741 0.282031L12.7554 7.28796V8.40377L12.9174 8.57961L16.0741 0.282031ZM16.0741 0.282031H17.5368L20.8554 7.28796V8.35004L20.6707 8.55313C20.1797 9.09217 19.5821 9.5234 18.9158 9.81952C18.2496 10.1156 17.5291 10.2702 16.8001 10.2735C16.8 10.2735 16.7999 10.2735 16.7998 10.2735L16.7822 10.2735C16.0561 10.2727 15.3379 10.1219 14.6728 9.8304C14.0078 9.53892 13.4102 9.1131 12.9175 8.57967L16.0741 0.282031ZM8.48042 7.28796V8.35005L8.29575 8.55322C7.80471 9.09224 7.20713 9.52345 6.54082 9.81956C5.87458 10.1156 5.15412 10.2702 4.42506 10.2735C4.42499 10.2735 4.42492 10.2735 4.42485 10.2735L4.40721 10.2735C3.68106 10.2727 2.9629 10.1219 2.29782 9.8304C1.63275 9.53891 1.03511 9.11306 0.542447 8.57961L0.38042 8.40377V7.28796L3.69907 0.282031H5.16177L8.48042 7.28796Z" fill="#3765FF" stroke="white" stroke-width="0.15"/>
</svg>
