<svg width="21" height="19" fill="none" xmlns="http://www.w3.org/2000/svg"><path d="m7.26 12.87-.03.02a3.98 3.98 0 0 1-2.81 1.16m2.84-1.18-2.85 1.1v.08h.01m2.84-1.18V12.56l-.01-.01-2.75-5.8-.07-.15-.07.14-2.75 5.8V12.93l.02.02a3.98 3.98 0 0 0 2.78 1.1l2.85-1.17Zm-2.84 1.18v-.08.08Zm15.21-1.18-.02.02a3.98 3.98 0 0 1-2.81 1.16m2.83-1.18-2.83 1.1m2.83-1.1V12.55l-2.76-5.8-.06-.15-.07.14-2.75 5.8-.01.02v.36l.02.02a3.98 3.98 0 0 0 2.78 1.1m2.85-1.17-2.85 1.18m.02 0v-.08m0 .08v-.08m0 .08h-.02v-.08m.02 0h-.02m0 0v.08m0-.08v.08m.03-7.28.04.1.02-.06-.06-.04Zm0 0-.07.04.02.05.05-.09Zm-.74-1.49-3.31 7v1.12l.16.18 3.15-8.3Zm0 0h1.47l3.32 7v1.07l-.19.2a5.27 5.27 0 0 1-3.87 1.72h-.02a5.27 5.27 0 0 1-3.86-1.69l3.15-8.3Zm-7.59 7v1.07l-.18.2a5.27 5.27 0 0 1-3.87 1.72H4.4a5.27 5.27 0 0 1-3.87-1.69l-.16-.18V12.3l3.32-7h1.46l3.32 7Z" fill="#3765FF" stroke="#fff" stroke-width=".15"/><path d="m11.28 5.38-.05.01v11.58h4.47v1.22H5.54v-1.22H10V5.39l-.06-.01A2.34 2.34 0 0 1 8.38 3.8l-.01-.05H3.8V2.53h4.56l.01-.05a2.33 2.33 0 0 1 4.47 0l.02.05h4.55v1.23h-4.55l-.02.05a2.34 2.34 0 0 1-1.57 1.57ZM9.7 2.53a1.1 1.1 0 1 0 1.84 1.23A1.1 1.1 0 0 0 9.7 2.53Z" fill="#3765FF" stroke="#fff" stroke-width=".15"/></svg>