<svg width="15" height="13" viewBox="0 0 15 13" fill="none" xmlns="http://www.w3.org/2000/svg">
<path fill-rule="evenodd" clip-rule="evenodd" d="M8.12494 7.51123C8.12494 7.85623 7.84494 8.13623 7.49994 8.13623C7.15494 8.13623 6.87494 7.85623 6.87494 7.51123V5.01123C6.87494 4.66623 7.15494 4.38623 7.49994 4.38623C7.84494 4.38623 8.12494 4.66623 8.12494 5.01123V7.51123ZM7.49994 10.0112C7.15494 10.0112 6.87494 9.73123 6.87494 9.38623C6.87494 9.04123 7.15494 8.76123 7.49994 8.76123C7.84494 8.76123 8.12494 9.04123 8.12494 9.38623C8.12494 9.73123 7.84494 10.0112 7.49994 10.0112ZM14.1006 9.57561L9.30557 1.62623C8.93119 1.00623 8.25619 0.63623 7.49994 0.63623C6.74369 0.63623 6.06869 1.00623 5.69432 1.62623L0.899319 9.57561C0.544319 10.165 0.533694 10.8737 0.871194 11.4712C1.23307 12.1131 1.93619 12.5112 2.70494 12.5112H12.2949C13.0637 12.5112 13.7668 12.1131 14.1287 11.4712C14.4662 10.8737 14.4556 10.165 14.1006 9.57561Z" fill="#E81414"/>
</svg>
