<svg width="18" height="19" viewBox="0 0 18 19" fill="none" xmlns="http://www.w3.org/2000/svg">
<path d="M15.0288 12.779C16.9425 11.0712 18 9.13623 18 9.13623C18 9.13623 14.625 2.94873 8.99996 2.94873C7.9195 2.95245 6.85127 3.17758 5.86121 3.61023L6.72746 4.47761C7.45582 4.21228 8.22477 4.07562 8.99996 4.07373C11.385 4.07373 13.3638 5.38773 14.814 6.83786C15.5119 7.53951 16.1375 8.3095 16.6815 9.13623C16.6162 9.23411 16.5442 9.34211 16.4621 9.46023C16.0852 10.0002 15.5283 10.7202 14.814 11.4346C14.6283 11.6202 14.4348 11.8036 14.2323 11.9814L15.0288 12.779Z" fill="#C9CFDD"/>
<path d="M12.7092 10.4594C12.9602 9.75721 13.0067 8.99818 12.8432 8.27061C12.6797 7.54304 12.313 6.87685 11.7857 6.34956C11.2584 5.82226 10.5923 5.45554 9.86468 5.29207C9.13712 5.12859 8.37809 5.17509 7.67591 5.42614L8.60178 6.35201C9.03413 6.29013 9.47495 6.32979 9.88931 6.46784C10.3037 6.6059 10.6802 6.83857 10.989 7.1474C11.2979 7.45623 11.5305 7.83274 11.6686 8.24711C11.8066 8.66147 11.8463 9.10229 11.7844 9.53464L12.7092 10.4594ZM9.39828 11.9208L10.323 12.8455C9.62085 13.0966 8.86182 13.1431 8.13426 12.9796C7.40669 12.8161 6.7405 12.4494 6.2132 11.9221C5.68591 11.3948 5.31919 10.7286 5.15572 10.001C4.99224 9.27347 5.03873 8.51444 5.28978 7.81226L6.21566 8.73814C6.15377 9.17048 6.19343 9.6113 6.33149 10.0257C6.46955 10.44 6.70221 10.8165 7.01105 11.1254C7.31988 11.4342 7.69639 11.6669 8.11075 11.8049C8.52511 11.943 8.96593 11.9826 9.39828 11.9208Z" fill="#C9CFDD"/>
<path d="M3.76875 6.29004C3.56625 6.47004 3.37162 6.65229 3.186 6.83791C2.4881 7.53956 1.86246 8.30956 1.3185 9.13629L1.53787 9.46029C1.91475 10.0003 2.47163 10.7203 3.186 11.4347C4.63613 12.8848 6.61613 14.1988 9 14.1988C9.8055 14.1988 10.5638 14.0492 11.2725 13.7938L12.1388 14.6623C11.1487 15.0949 10.0805 15.32 9 15.3238C3.375 15.3238 0 9.13629 0 9.13629C0 9.13629 1.05638 7.20016 2.97113 5.49354L3.76762 6.29116L3.76875 6.29004ZM15.3517 16.2845L1.85175 2.78454L2.64825 1.98804L16.1483 15.488L15.3517 16.2845Z" fill="#C9CFDD"/>
</svg>
