<svg width="21" height="16" viewBox="0 0 21 16" fill="none" xmlns="http://www.w3.org/2000/svg">
<path d="M20.0271 8.50016L20.0271 8.50025C18.9706 10.7268 17.6492 12.3901 16.0657 13.497C14.4834 14.603 12.6307 15.1596 10.4999 15.1596C8.37018 15.1596 6.51749 14.603 4.93491 13.4973C3.35106 12.3906 2.02911 10.7279 0.972697 8.50247L0.83719 8.5668L0.972826 8.50274C0.896878 8.34192 0.857489 8.16628 0.857489 7.98843C0.857489 7.81064 0.896848 7.63507 0.972739 7.4743C2.02916 5.2478 3.35055 3.58448 4.93409 2.47761C6.51637 1.37161 8.36905 0.815039 10.4999 0.815039C12.6296 0.815039 14.4823 1.37161 16.0649 2.47734C17.6486 3.58391 18.9705 5.2466 20.0269 7.47182C20.181 7.80245 20.1804 8.17759 20.0271 8.50016ZM2.21827 7.92198L2.18668 7.9873L2.21827 8.05262C3.16159 10.0027 4.30725 11.4519 5.68372 12.4132C7.06174 13.3757 8.66146 13.8424 10.4999 13.8424C12.3394 13.8424 13.9397 13.3757 15.3177 12.4132C16.6942 11.4519 17.8393 10.0026 18.7815 8.05256L18.8131 7.98727L18.7815 7.92198C17.8382 5.97193 16.6925 4.52273 15.316 3.56137C13.938 2.59894 12.3383 2.13223 10.4999 2.13223C8.66146 2.13223 7.06174 2.59894 5.68372 3.56137C4.30725 4.52273 3.16159 5.97193 2.21827 7.92198ZM6.60692 7.9873C6.60692 5.88694 8.30968 4.18418 10.41 4.18418C12.5104 4.18418 14.2132 5.88694 14.2132 7.9873C14.2132 10.0877 12.5104 11.7904 10.41 11.7904C8.30968 11.7904 6.60692 10.0877 6.60692 7.9873ZM7.74442 7.9873C7.74442 9.46048 8.93687 10.6529 10.41 10.6529C11.8832 10.6529 13.0757 9.46048 13.0757 7.9873C13.0757 6.51413 11.8832 5.32168 10.41 5.32168C8.93687 5.32168 7.74442 6.51413 7.74442 7.9873Z" fill="#3765FF" stroke="#F1F4F6" stroke-width="0.3"/>
</svg>
