<svg width="11" height="14" viewBox="0 0 11 14" fill="none" xmlns="http://www.w3.org/2000/svg">
<path d="M2.79473 5.71807C2.88262 5.63029 3.00176 5.58098 3.12598 5.58098C3.2502 5.58098 3.36934 5.63029 3.45723 5.71807L5.15723 7.41807L6.85723 5.71807C6.90014 5.67201 6.95189 5.63507 7.00939 5.60945C7.06689 5.58383 7.12896 5.57006 7.1919 5.56895C7.25484 5.56784 7.31736 5.57941 7.37573 5.60299C7.43409 5.62657 7.48711 5.66166 7.53163 5.70617C7.57614 5.75068 7.61123 5.8037 7.6348 5.86207C7.65838 5.92044 7.66996 5.98295 7.66885 6.04589C7.66774 6.10883 7.65396 6.1709 7.62834 6.2284C7.60272 6.2859 7.56578 6.33765 7.51973 6.38057L5.81973 8.08057L6.11348 8.37369L7.36348 9.62369L7.3641 9.62494L7.52035 9.78057C7.5651 9.82383 7.60079 9.87557 7.62533 9.93277C7.64987 9.98997 7.66277 10.0515 7.66328 10.1137C7.66379 10.176 7.6519 10.2377 7.6283 10.2953C7.60471 10.3529 7.56988 10.4052 7.52584 10.4492C7.48181 10.4932 7.42946 10.528 7.37184 10.5515C7.31422 10.575 7.25249 10.5869 7.19025 10.5863C7.12801 10.5857 7.06651 10.5728 7.00933 10.5482C6.95215 10.5236 6.90045 10.4879 6.85723 10.4431L6.70098 10.2874L5.45098 9.03744L5.15723 8.74369L3.45723 10.4437C3.36878 10.529 3.25035 10.5762 3.12744 10.5751C3.00454 10.574 2.88699 10.5246 2.80012 10.4377C2.71326 10.3507 2.66401 10.2331 2.663 10.1102C2.66199 9.98732 2.7093 9.86893 2.79473 9.78057L4.49473 8.08057L2.79473 6.38057C2.70695 6.29268 2.65764 6.17354 2.65764 6.04932C2.65764 5.9251 2.70695 5.80596 2.79473 5.71807V5.71807ZM6.25098 0.580567C6.17736 0.580513 6.10476 0.597799 6.03907 0.631026C5.97338 0.664253 5.91643 0.712485 5.87285 0.771817L4.18035 3.08057H3.28223V2.92432C3.28223 2.3856 3.06822 1.86894 2.68729 1.48801C2.30635 1.10707 1.7897 0.893067 1.25098 0.893067H0.625977C0.501656 0.893067 0.382428 0.942452 0.29452 1.03036C0.206613 1.11827 0.157227 1.2375 0.157227 1.36182C0.157227 1.48614 0.206613 1.60537 0.29452 1.69327C0.382428 1.78118 0.501656 1.83057 0.625977 1.83057H1.25098C1.85473 1.83057 2.34473 2.32057 2.34473 2.92432V3.08057H1.87598C1.42014 3.08057 0.982965 3.26165 0.660637 3.58398C0.338309 3.9063 0.157227 4.34348 0.157227 4.79932V11.3618C0.157227 11.8177 0.338309 12.2548 0.660637 12.5772C0.982965 12.8995 1.42014 13.0806 1.87598 13.0806H8.43848C8.66419 13.0806 8.88769 13.0361 9.09621 12.9497C9.30474 12.8634 9.49422 12.7368 9.65382 12.5772C9.81342 12.4176 9.94002 12.2281 10.0264 12.0196C10.1128 11.811 10.1572 11.5875 10.1572 11.3618V4.79932C10.1572 4.26307 9.9116 3.78369 9.52598 3.46807C9.53028 3.4433 9.53237 3.4182 9.53223 3.39307V1.04932C9.53223 0.924996 9.48284 0.805768 9.39493 0.71786C9.30703 0.629952 9.1878 0.580567 9.06348 0.580567H6.25098ZM8.59473 3.08744C8.54277 3.08281 8.49064 3.08051 8.43848 3.08057H5.34285L6.48848 1.51807H8.59473V3.08744ZM1.87598 4.01807H8.43848C8.86973 4.01807 9.21973 4.36807 9.21973 4.79932V11.3618C9.21973 11.7931 8.86973 12.1431 8.43848 12.1431H1.87598C1.44473 12.1431 1.09473 11.7931 1.09473 11.3618V4.79932C1.09473 4.36807 1.44473 4.01807 1.87598 4.01807Z" fill="white"/>
</svg>
