<svg width="21" height="19" viewBox="0 0 21 19" fill="none" xmlns="http://www.w3.org/2000/svg">
<path d="M10.6179 18.5193C10.3332 18.5193 10.0587 18.4162 9.84474 18.2288C9.03679 17.5223 8.25783 16.8584 7.57057 16.2728L7.56706 16.2697C5.55215 14.5527 3.81219 13.0698 2.60156 11.6091C1.24826 9.9761 0.61792 8.4278 0.61792 6.73636C0.61792 5.09299 1.18143 3.57687 2.20453 2.4671C3.23983 1.34421 4.66042 0.725769 6.20507 0.725769C7.35955 0.725769 8.41682 1.09076 9.34746 1.81052C9.81712 2.17383 10.2428 2.61847 10.6179 3.13712C10.9931 2.61847 11.4187 2.17383 11.8885 1.81052C12.8191 1.09076 13.8764 0.725769 15.0309 0.725769C16.5754 0.725769 17.9961 1.34421 19.0314 2.4671C20.0545 3.57687 20.6179 5.09299 20.6179 6.73636C20.6179 8.4278 19.9877 9.9761 18.6344 11.6089C17.4238 13.0698 15.684 14.5525 13.6693 16.2694C12.9809 16.856 12.2007 17.521 11.3909 18.2291C11.1771 18.4162 10.9025 18.5193 10.6179 18.5193ZM6.20507 1.89734C4.99154 1.89734 3.87673 2.38165 3.06573 3.26117C2.24267 4.15396 1.78933 5.38809 1.78933 6.73636C1.78933 8.15894 2.31805 9.43121 3.5035 10.8616C4.64928 12.2442 6.35354 13.6965 8.3268 15.3782L8.33046 15.3812C9.02031 15.9691 9.80232 16.6357 10.6162 17.3473C11.435 16.6343 12.2182 15.9667 12.9095 15.3779C14.8826 13.6962 16.5867 12.2442 17.7325 10.8616C18.9178 9.43121 19.4465 8.15894 19.4465 6.73636C19.4465 5.38809 18.9931 4.15396 18.1701 3.26117C17.3592 2.38165 16.2443 1.89734 15.0309 1.89734C14.1419 1.89734 13.3257 2.17993 12.605 2.73718C11.9628 3.23401 11.5154 3.86206 11.2531 4.30151C11.1182 4.5275 10.8808 4.66238 10.6179 4.66238C10.355 4.66238 10.1176 4.5275 9.98268 4.30151C9.72053 3.86206 9.27315 3.23401 8.63075 2.73718C7.91008 2.17993 7.09389 1.89734 6.20507 1.89734Z" fill="#3765FF"/>
</svg>
