<svg width="14" height="12" viewBox="0 0 14 12" fill="none" xmlns="http://www.w3.org/2000/svg">
<path d="M11.1176 3L8.64706 7.71429H13.5882L11.1176 3ZM2.88235 3L0.411765 7.71429H5.35294L2.88235 3ZM8.16452 1.71429C8.10447 1.89286 8.00689 2.05246 7.87178 2.19308C7.73667 2.33371 7.58333 2.43527 7.41176 2.49777V11.1429H11.3235C11.3836 11.1429 11.4329 11.1629 11.4715 11.2031C11.5101 11.2433 11.5294 11.2946 11.5294 11.3571V11.7857C11.5294 11.8482 11.5101 11.8996 11.4715 11.9397C11.4329 11.9799 11.3836 12 11.3235 12H2.67647C2.61642 12 2.5671 11.9799 2.52849 11.9397C2.48989 11.8996 2.47059 11.8482 2.47059 11.7857V11.3571C2.47059 11.2946 2.48989 11.2433 2.52849 11.2031C2.5671 11.1629 2.61642 11.1429 2.67647 11.1429H6.58824V2.49777C6.41667 2.43527 6.26333 2.33371 6.12822 2.19308C5.99311 2.05246 5.89553 1.89286 5.83548 1.71429H2.67647C2.61642 1.71429 2.5671 1.6942 2.52849 1.65402C2.48989 1.61384 2.47059 1.5625 2.47059 1.5V1.07143C2.47059 1.00893 2.48989 0.957589 2.52849 0.917411C2.5671 0.877232 2.61642 0.857143 2.67647 0.857143H5.83548C5.92555 0.602679 6.07567 0.396205 6.28585 0.237723C6.49602 0.0792411 6.73407 0 7 0C7.26593 0 7.50398 0.0792411 7.71415 0.237723C7.92433 0.396205 8.07445 0.602679 8.16452 0.857143H11.3235C11.3836 0.857143 11.4329 0.877232 11.4715 0.917411C11.5101 0.957589 11.5294 1.00893 11.5294 1.07143V1.5C11.5294 1.5625 11.5101 1.61384 11.4715 1.65402C11.4329 1.6942 11.3836 1.71429 11.3235 1.71429H8.16452ZM7 1.82143C7.14154 1.82143 7.26271 1.76897 7.36351 1.66406C7.46431 1.55915 7.51471 1.43304 7.51471 1.28571C7.51471 1.13839 7.46431 1.01228 7.36351 0.907366C7.26271 0.802455 7.14154 0.75 7 0.75C6.85846 0.75 6.73729 0.802455 6.63649 0.907366C6.53569 1.01228 6.48529 1.13839 6.48529 1.28571C6.48529 1.43304 6.53569 1.55915 6.63649 1.66406C6.73729 1.76897 6.85846 1.82143 7 1.82143ZM14 7.71429C14 8.04018 13.9003 8.33259 13.7008 8.59152C13.5014 8.85045 13.2494 9.05357 12.9449 9.20089C12.6403 9.34821 12.3304 9.45871 12.0152 9.53237C11.6999 9.60603 11.4007 9.64286 11.1176 9.64286C10.8346 9.64286 10.5354 9.60603 10.2201 9.53237C9.90487 9.45871 9.59498 9.34821 9.29044 9.20089C8.98591 9.05357 8.73392 8.85045 8.53447 8.59152C8.33502 8.33259 8.23529 8.04018 8.23529 7.71429C8.23529 7.66518 8.31036 7.48438 8.46048 7.17188C8.6106 6.85938 8.8079 6.46987 9.05239 6.00335C9.29688 5.53683 9.52635 5.10045 9.74081 4.6942C9.95527 4.28795 10.174 3.87723 10.3971 3.46205C10.6201 3.04688 10.7402 2.82366 10.7574 2.79241C10.8346 2.64509 10.9547 2.57143 11.1176 2.57143C11.2806 2.57143 11.4007 2.64509 11.4779 2.79241C11.4951 2.82366 11.6152 3.04688 11.8382 3.46205C12.0613 3.87723 12.28 4.28795 12.4945 4.6942C12.7089 5.10045 12.9384 5.53683 13.1829 6.00335C13.4274 6.46987 13.6247 6.85938 13.7748 7.17188C13.9249 7.48438 14 7.66518 14 7.71429ZM5.76471 7.71429C5.76471 8.04018 5.66498 8.33259 5.46553 8.59152C5.26608 8.85045 5.01409 9.05357 4.70956 9.20089C4.40502 9.34821 4.09513 9.45871 3.77987 9.53237C3.46461 9.60603 3.16544 9.64286 2.88235 9.64286C2.59926 9.64286 2.30009 9.60603 1.98483 9.53237C1.66958 9.45871 1.35968 9.34821 1.05515 9.20089C0.750613 9.05357 0.498621 8.85045 0.299173 8.59152C0.0997243 8.33259 0 8.04018 0 7.71429C0 7.66518 0.0750613 7.48438 0.225184 7.17188C0.375306 6.85938 0.57261 6.46987 0.817096 6.00335C1.06158 5.53683 1.29105 5.10045 1.50551 4.6942C1.71998 4.28795 1.93873 3.87723 2.16176 3.46205C2.3848 3.04688 2.5049 2.82366 2.52206 2.79241C2.59926 2.64509 2.71936 2.57143 2.88235 2.57143C3.04534 2.57143 3.16544 2.64509 3.24265 2.79241C3.2598 2.82366 3.3799 3.04688 3.60294 3.46205C3.82598 3.87723 4.04473 4.28795 4.25919 4.6942C4.47365 5.10045 4.70313 5.53683 4.94761 6.00335C5.1921 6.46987 5.3894 6.85938 5.53952 7.17188C5.68964 7.48438 5.76471 7.66518 5.76471 7.71429Z" fill="#3765FF"/>
</svg>
