<svg width="25" height="25" viewBox="0 0 25 25" fill="none" xmlns="http://www.w3.org/2000/svg">
<mask id="mask0_903_3526" style="mask-type:alpha" maskUnits="userSpaceOnUse" x="2" y="3" width="20" height="20">
<path d="M19.8468 3.55566L4.8468 3.55566C4.44898 3.55566 4.06745 3.71354 3.78614 3.99457C3.50484 4.2756 3.3468 4.65675 3.3468 5.05418L3.3468 20.0393C3.3468 20.4368 3.50484 20.8179 3.78614 21.0989C4.06745 21.38 4.44898 21.5379 4.8468 21.5379L19.8468 21.5379C20.2446 21.5379 20.6262 21.38 20.9075 21.0989C21.1888 20.8179 21.3468 20.4368 21.3468 20.0393L21.3468 5.05418C21.3468 4.65675 21.1888 4.2756 20.9075 3.99457C20.6262 3.71354 20.2446 3.55566 19.8468 3.55566Z" stroke="white" stroke-linecap="round" stroke-linejoin="round"/>
<path d="M9.3468 12.0478C10.0098 12.0478 10.6457 11.7847 11.1146 11.3162C11.5834 10.8478 11.8468 10.2125 11.8468 9.55003C11.8468 8.88758 11.5834 8.25225 11.1146 7.78383C10.6457 7.3154 10.0098 7.05225 9.3468 7.05225C8.68376 7.05225 8.04788 7.3154 7.57903 7.78383C7.11019 8.25225 6.8468 8.88758 6.8468 9.55003C6.8468 10.2125 7.11019 10.8478 7.57903 11.3162C8.04788 11.7847 8.68376 12.0478 9.3468 12.0478Z" fill="white" stroke="white" stroke-width="2" stroke-linecap="round" stroke-linejoin="round"/>
<path d="M14.2418 13.656C14.3366 13.5293 14.4601 13.4269 14.6022 13.3572C14.7443 13.2874 14.901 13.2524 15.0593 13.255C15.2176 13.2576 15.3731 13.2977 15.5129 13.372C15.6526 13.4463 15.7727 13.5528 15.8633 13.6825L20.2508 19.9671C20.7128 20.6294 20.2383 21.5374 19.4308 21.5374L8.3468 21.5374L14.2418 13.656Z" stroke="white" stroke-linecap="round" stroke-linejoin="round"/>
</mask>
<g mask="url(#mask0_903_3526)">
<path d="M0.346802 0.558594L24.3468 0.558594L24.3468 24.5348L0.346802 24.5348L0.346802 0.558594Z" fill="#3765FF"/>
</g>
</svg>
