<svg width="16" height="18" viewBox="0 0 16 18" fill="none" xmlns="http://www.w3.org/2000/svg">
<g clip-path="url(#clip0_844_591)">
<path d="M14.4863 7.51392C14.4863 11.4983 8.9082 15.217 8.9082 15.217C8.9082 15.217 3.33008 11.4983 3.33008 7.51392C3.33008 6.03451 3.91777 4.61569 4.96387 3.56959C6.00997 2.52348 7.42879 1.93579 8.9082 1.93579C10.3876 1.93579 11.8064 2.52348 12.8525 3.56959C13.8986 4.61569 14.4863 6.03451 14.4863 7.51392V7.51392Z" stroke="white" stroke-width="1.1" stroke-linecap="round" stroke-linejoin="round"/>
<path d="M8.9082 8.84204C9.64171 8.84204 10.2363 8.24742 10.2363 7.51392C10.2363 6.78041 9.64171 6.18579 8.9082 6.18579C8.1747 6.18579 7.58008 6.78041 7.58008 7.51392C7.58008 8.24742 8.1747 8.84204 8.9082 8.84204Z" fill="white" stroke="white" stroke-width="1.1" stroke-linecap="round" stroke-linejoin="round"/>
</g>
<defs>
<clipPath id="clip0_844_591">
<rect width="15" height="17" fill="white" transform="translate(0.550781 0.219238)"/>
</clipPath>
</defs>
</svg>
