<svg width="13" height="12" viewBox="0 0 13 12" fill="none" xmlns="http://www.w3.org/2000/svg">
<path d="M6.22298 9.02075C5.75886 9.02075 5.31374 8.82321 4.98555 8.47158C4.65736 8.11995 4.47298 7.64303 4.47298 7.14575C4.47298 6.44575 4.82882 5.83325 5.34798 5.5145L11.0122 2.002L7.78632 7.9895C7.49465 8.602 6.90548 9.02075 6.22298 9.02075ZM6.22298 0.895752C7.27882 0.895752 8.26465 1.20825 9.12215 1.72075L7.89715 2.477C7.38965 2.2645 6.80632 2.14575 6.22298 2.14575C4.98531 2.14575 3.79832 2.67254 2.92315 3.61022C2.04798 4.5479 1.55632 5.81967 1.55632 7.14575C1.55632 8.527 2.07549 9.777 2.92132 10.677H2.92715C3.15465 10.9208 3.15465 11.3145 2.92715 11.5583C2.69965 11.802 2.32632 11.802 2.09882 11.5645C1.5563 10.9849 1.12603 10.2962 0.832714 9.53785C0.5394 8.77954 0.388828 7.9666 0.389652 7.14575C0.389652 5.48815 1.00423 3.89844 2.0982 2.72633C3.19216 1.55423 4.67589 0.895752 6.22298 0.895752ZM12.0563 7.14575C12.0563 8.87075 11.403 10.4333 10.3472 11.5645C10.1197 11.802 9.75215 11.802 9.52465 11.5583C9.47057 11.5004 9.42767 11.4318 9.3984 11.3561C9.36913 11.2805 9.35406 11.1995 9.35406 11.1176C9.35406 11.0358 9.36913 10.9547 9.3984 10.8791C9.42767 10.8035 9.47057 10.7348 9.52465 10.677C9.95848 10.2141 10.3025 9.66371 10.5367 9.05763C10.771 8.45154 10.891 7.80176 10.8897 7.14575C10.8897 6.52075 10.7788 5.89575 10.5747 5.33325L11.2805 4.02075C11.7647 4.95825 12.0563 6.00825 12.0563 7.14575Z" fill="white"/>
</svg>
