<svg width="13" height="16" viewBox="0 0 13 16" fill="none" xmlns="http://www.w3.org/2000/svg">
<g clip-path="url(#clip0_844_595)">
<path d="M4.42578 12.734H4.59897L4.51239 12.584L0.774889 6.10904L0.774913 6.10903L0.773675 6.107C0.538277 5.7207 0.400781 5.29475 0.400781 4.82153H0.300781L0.400781 4.82162C0.401316 4.23803 0.614531 3.67464 1.00051 3.23692C1.38649 2.79919 1.91877 2.51715 2.49771 2.44359C3.07665 2.37003 3.66255 2.50999 4.14574 2.83727C4.62892 3.16455 4.97626 3.65672 5.12273 4.22163L5.14215 4.29653H5.21953H7.80078H7.90078V4.19653V2.63403C7.90078 2.03544 8.36482 1.53951 8.95078 1.48838V3.00278V3.2442L9.12149 3.07349L10.086 2.10903H12.7008V3.15903H10.557H10.5156L10.4863 3.18832L8.98007 4.69457L8.95078 4.72386V4.76528V4.87778V4.9192L8.98007 4.94849L10.4863 6.45474L10.5156 6.48403H10.557H12.7008V7.53403H10.086L9.12149 6.56957L8.95078 6.39886V6.64028V8.15468C8.68243 8.13127 8.42958 8.01418 8.23761 7.82221C8.02194 7.60654 7.90078 7.31403 7.90078 7.00903V5.44653V5.34653H7.80078H5.21953H5.14194L5.12266 5.4217C5.06275 5.65538 4.96663 5.87798 4.84584 6.08333L4.8163 6.13354L4.84541 6.18401L8.59541 12.684L8.62428 12.734H8.68203H11.5508C11.8558 12.734 12.1483 12.8552 12.364 13.0709C12.5796 13.2865 12.7008 13.579 12.7008 13.884V14.409H0.400781V13.884C0.400781 13.2518 0.91851 12.734 1.55078 12.734H4.42578ZM4.08116 6.95908L4.0314 6.87279L3.94492 6.92221C3.61002 7.11358 3.22087 7.22153 2.80078 7.22153H2.62753L2.71419 7.37155L5.78294 12.6841L5.81181 12.734H5.86953H7.23828H7.41138L7.32491 12.5841L4.08116 6.95908ZM2.80078 3.47153C2.44274 3.47153 2.09936 3.61376 1.84619 3.86694C1.59301 4.12011 1.45078 4.46349 1.45078 4.82153C1.45078 5.57051 2.0518 6.17153 2.80078 6.17153C3.54976 6.17153 4.15078 5.57051 4.15078 4.82153C4.15078 4.46349 4.00855 4.12011 3.75538 3.86694C3.5022 3.61376 3.15882 3.47153 2.80078 3.47153Z" fill="white" stroke="#032081" stroke-width="0.2"/>
<path d="M12.8342 0.772461H5.3373V0.86332C5.3373 1.78718 4.99711 3.43977 4.99711 4.20734C5.08524 4.5503 5.08524 5.18722 4.99711 5.51291L5.89766 6.37621L6.54891 7.64842L7.82111 8.90548L12.8342 9.26897V7.93618V0.772461Z" fill="#032081"/>
</g>
<defs>
<clipPath id="clip0_844_595">
<rect width="12" height="15" fill="white" transform="translate(0.550781 0.219238)"/>
</clipPath>
</defs>
</svg>
