<svg width="17" height="17" viewBox="0 0 17 17" fill="none" xmlns="http://www.w3.org/2000/svg">
<path d="M8.49998 1.17773C9.0534 1.1777 9.58587 1.38944 9.98813 1.76952C10.3904 2.14959 10.632 2.6692 10.6633 3.22173L10.6666 3.3444H14.1666C14.2933 3.34444 14.4153 3.39256 14.5078 3.47905C14.6004 3.56553 14.6567 3.68393 14.6653 3.81032C14.674 3.93671 14.6343 4.06166 14.5544 4.15993C14.4744 4.25821 14.3601 4.32247 14.2346 4.33973L14.1666 4.3444H13.636L12.7826 13.0244C12.7399 13.4571 12.5447 13.8606 12.232 14.1627C11.9192 14.4648 11.5093 14.646 11.0753 14.6737L10.958 14.6777H6.04198C5.60695 14.6777 5.18611 14.523 4.85465 14.2413C4.52319 13.9595 4.30273 13.5691 4.23265 13.1397L4.21731 13.0237L3.36331 4.3444H2.83331C2.71249 4.3444 2.59575 4.30064 2.50469 4.22122C2.41363 4.14181 2.35441 4.0321 2.33798 3.9124L2.33331 3.8444C2.33332 3.72358 2.37707 3.60684 2.45649 3.51578C2.53591 3.42472 2.64561 3.3655 2.76531 3.34907L2.83331 3.3444H6.33331C6.33331 2.76977 6.56159 2.21867 6.96792 1.81234C7.37424 1.40601 7.92534 1.17773 8.49998 1.17773ZM12.6313 4.3444H4.36798L5.21265 12.9257C5.23135 13.1172 5.31573 13.2963 5.45146 13.4327C5.5872 13.569 5.76592 13.6542 5.95731 13.6737L6.04198 13.6777H10.958C11.358 13.6777 11.6973 13.3944 11.7746 13.0097L11.788 12.9257L12.6306 4.3444H12.6313ZM9.66665 6.17773C9.78747 6.17774 9.90421 6.2215 9.99527 6.30091C10.0863 6.38033 10.1455 6.49003 10.162 6.60973L10.1666 6.67773V11.3444C10.1666 11.4711 10.1185 11.593 10.032 11.6856C9.94551 11.7782 9.82711 11.8345 9.70073 11.8431C9.57434 11.8517 9.44939 11.8121 9.35111 11.7321C9.25284 11.6522 9.18858 11.5379 9.17131 11.4124L9.16665 11.3444V6.67773C9.16665 6.54513 9.21933 6.41795 9.31309 6.32418C9.40686 6.23041 9.53404 6.17773 9.66665 6.17773ZM7.33331 6.17773C7.45414 6.17774 7.57087 6.2215 7.66193 6.30091C7.75299 6.38033 7.81221 6.49003 7.82865 6.60973L7.83331 6.67773V11.3444C7.83327 11.4711 7.78515 11.593 7.69866 11.6856C7.61218 11.7782 7.49378 11.8345 7.36739 11.8431C7.24101 11.8517 7.11605 11.8121 7.01778 11.7321C6.91951 11.6522 6.85525 11.5379 6.83798 11.4124L6.83331 11.3444V6.67773C6.83331 6.54513 6.88599 6.41795 6.97976 6.32418C7.07353 6.23041 7.20071 6.17773 7.33331 6.17773ZM8.49998 2.17773C8.20719 2.17775 7.9251 2.28785 7.70972 2.48619C7.49434 2.68453 7.36141 2.9566 7.33731 3.2484L7.33331 3.3444H9.66665C9.66665 3.03498 9.54373 2.73824 9.32494 2.51944C9.10615 2.30065 8.8094 2.17773 8.49998 2.17773Z" fill="#C9CFDD"/>
</svg>
