<svg width="652" height="417" viewBox="0 0 652 417" fill="none" xmlns="http://www.w3.org/2000/svg">
<path d="M631.401 247.678C625.054 199.3 533.086 193.734 514.827 187.388C497.921 181.509 396.693 124.444 370.476 109.879C365.846 107.33 360.904 105.457 355.755 104.417C334.583 100.151 297.494 101.503 215.877 103.324C115.949 103.324 78.704 185.775 50.9261 232.593C23.1482 279.358 62.0061 315.043 70.7452 319.829C79.4843 324.563 109.863 323.054 109.863 323.054H110.591C110.643 352.498 134.468 376.322 163.91 376.322C193.301 376.322 217.073 352.602 217.229 323.263L469.051 323.731C469.051 324.303 468.999 324.823 468.999 325.395C468.999 354.838 492.875 378.715 522.318 378.715C551.76 378.715 575.637 354.838 575.637 325.395C575.637 324.875 575.637 324.407 575.585 323.939H575.793C614.703 324.667 637.747 296.004 631.401 247.678Z" fill="#F1F4F6" stroke="#032081" stroke-width="4" stroke-miterlimit="10"/>
<path d="M512.851 186.191L613.558 136.252" stroke="#032081" stroke-width="4" stroke-miterlimit="10"/>
<path d="M503.747 133.443C512.486 131.051 529.132 113.624 511.654 95.3651C494.176 77.1063 494.228 54.946 511.654 49.3799" stroke="#C9CFDD" stroke-width="4" stroke-miterlimit="10"/>
<path d="M548.119 117.577C556.858 115.184 573.504 97.7578 556.026 79.4989C538.548 61.2401 538.6 39.0798 556.026 33.5137" stroke="#C9CFDD" stroke-width="4" stroke-miterlimit="10"/>
<path d="M322.931 140.622L321.37 204.866L425.251 203.305C421.246 183.434 402.259 135.055 322.931 140.622Z" stroke="#032081" stroke-width="4" stroke-miterlimit="10"/>
<path d="M147.681 204.033H284.853L284.073 136.616C250.781 139.009 159.593 122.363 147.681 204.033Z" stroke="#032081" stroke-width="4" stroke-miterlimit="10"/>
</svg>
