<svg width="383" height="776" viewBox="0 0 383 776" fill="none" xmlns="http://www.w3.org/2000/svg">
<mask id="path-1-inside-1_3175_8591" fill="white">
<path d="M-5.16507 775.735C45.7608 775.735 96.1879 765.705 143.237 746.216C190.287 726.728 233.037 698.163 269.047 662.153C305.057 626.143 333.621 583.393 353.11 536.344C372.598 489.294 382.629 438.867 382.629 387.941C382.629 337.016 372.598 286.588 353.11 239.539C333.621 192.49 305.057 149.74 269.047 113.73C233.037 77.7197 190.287 49.155 143.237 29.6665C96.1879 10.178 45.7607 0.147442 -5.16507 0.147444L-5.16506 387.941L-5.16507 775.735Z"/>
</mask>
<path d="M-5.16507 775.735C45.7608 775.735 96.1879 765.705 143.237 746.216C190.287 726.728 233.037 698.163 269.047 662.153C305.057 626.143 333.621 583.393 353.11 536.344C372.598 489.294 382.629 438.867 382.629 387.941C382.629 337.016 372.598 286.588 353.11 239.539C333.621 192.49 305.057 149.74 269.047 113.73C233.037 77.7197 190.287 49.155 143.237 29.6665C96.1879 10.178 45.7607 0.147442 -5.16507 0.147444L-5.16506 387.941L-5.16507 775.735Z" stroke="#E4E8F2" stroke-width="2" mask="url(#path-1-inside-1_3175_8591)"/>
<circle cx="-5.16514" cy="387.941" r="257.398" transform="rotate(90 -5.16514 387.941)" stroke="#E4E8F2"/>
</svg>
