<svg width="25" height="25" viewBox="0 0 25 25" fill="none" xmlns="http://www.w3.org/2000/svg">
<g clip-path="url(#clip0_938_6216)">
<path d="M8.35877 17.5986L8.33663 17.6206C7.43074 18.5204 6.20513 19.0244 4.92833 19.0222M8.35877 17.5986L4.91122 18.9472L4.9116 19.0222L4.92833 19.0222M8.35877 17.5986V17.5674V17.2536V17.2367L8.35155 17.2215L5.00831 10.1635L4.94053 10.0204L4.87275 10.1635L1.5295 17.2215L1.52228 17.2367V17.2536V17.6227V17.6547L1.54532 17.6768C2.44977 18.5458 3.65714 19.0284 4.91141 19.0222L8.35877 17.5986ZM4.92833 19.0222L4.92846 18.9472V19.0222H4.92833ZM23.4034 17.5986L23.3812 17.6206C22.4753 18.5204 21.2497 19.0244 19.9729 19.0222M23.4034 17.5986L19.9731 18.9472M23.4034 17.5986V17.5674V17.2536V17.2367L23.3962 17.2215L20.0529 10.1635L19.9851 10.0204L19.9174 10.1635L16.5741 17.2215L16.5669 17.2367V17.2536V17.6227V17.6547L16.5899 17.6768C17.4944 18.5458 18.7017 19.0284 19.956 19.0222M23.4034 17.5986L19.956 19.0222M19.9729 19.0222L19.9731 18.9472M19.9729 19.0222H19.9731V18.9472M19.9729 19.0222L19.9562 19.0222L19.9558 18.9472M19.9731 18.9472H19.9558M19.9558 18.9472V19.0222H19.956M19.9558 18.9472L19.956 19.0222M19.9851 10.1956L20.0266 10.2832L20.0529 10.2277L19.9851 10.1956ZM19.9851 10.1956L19.9174 10.2277L19.9436 10.2832L19.9851 10.1956ZM9.8804 16.8943V18.1954L9.65167 18.4471C9.0532 19.104 8.32487 19.6296 7.51277 19.9905C6.70074 20.3514 5.82264 20.5397 4.93404 20.5437C4.93397 20.5437 4.93389 20.5437 4.93382 20.5437L4.91229 20.5437C4.02726 20.5428 3.15197 20.359 2.34138 20.0037C1.53079 19.6484 0.802394 19.1294 0.201933 18.4792L0.000659183 18.2608V16.8943L4.04117 8.36449H5.83988L9.8804 16.8943ZM15.0453 16.8943L19.0858 8.36449H20.8845L24.925 16.8943V18.1954L24.6963 18.447C24.0978 19.1039 23.3695 19.6295 22.5574 19.9904C21.7454 20.3513 20.8672 20.5397 19.9786 20.5437C19.9786 20.5437 19.9785 20.5437 19.9784 20.5437L19.9569 20.5437C19.0719 20.5428 18.1966 20.359 17.386 20.0037C16.5754 19.6484 15.847 19.1294 15.2465 18.4792L15.0453 18.2608V16.8943Z" fill="#070A0C" stroke="white" stroke-width="0.15"/>
<path d="M13.2771 8.51327L13.2237 8.52932V8.58509V22.4983V22.5733H13.2987H18.6564V24.0949H6.26927V22.5733H11.627H11.702V22.4983V8.58509V8.52932L11.6486 8.51327C11.1955 8.37708 10.7833 8.13069 10.4487 7.79615C10.1142 7.46161 9.86782 7.04935 9.73163 6.59627L9.71557 6.54286H9.6598H4.17974V5.02123H9.6598H9.71571L9.73168 4.96765C9.90697 4.37943 10.2675 3.86352 10.7596 3.49669C11.2517 3.12985 11.8491 2.93169 12.4629 2.93169C13.0766 2.93169 13.674 3.12985 14.1661 3.49669C14.6582 3.86352 15.0187 4.37943 15.194 4.96765L15.21 5.02123H15.2659H20.746V6.54286H15.2659H15.2101L15.1941 6.59627C15.0579 7.04935 14.8115 7.46161 14.477 7.79615C14.1424 8.13069 13.7302 8.37708 13.2771 8.51327ZM11.3581 5.04385C11.2121 5.26235 11.1341 5.51925 11.1341 5.78204C11.1341 6.13444 11.2741 6.47241 11.5233 6.72159C11.7725 6.97077 12.1105 7.11076 12.4629 7.11076C12.7256 7.11076 12.9825 7.03283 13.201 6.88683C13.4196 6.74083 13.5899 6.53331 13.6904 6.29052C13.791 6.04773 13.8173 5.78057 13.766 5.52282C13.7148 5.26508 13.5882 5.02832 13.4024 4.8425C13.2166 4.65667 12.9798 4.53013 12.7221 4.47886C12.4643 4.42759 12.1972 4.4539 11.9544 4.55447C11.7116 4.65504 11.5041 4.82534 11.3581 5.04385Z" fill="#070A0C" stroke="white" stroke-width="0.15"/>
</g>
<defs>
<clipPath id="clip0_938_6216">
<rect width="25" height="25" fill="white"/>
</clipPath>
</defs>
</svg>
