<svg width="23" height="23" viewBox="0 0 23 23" fill="none" xmlns="http://www.w3.org/2000/svg">
<path d="M11.5 21.7204C11.1725 21.7204 10.8569 21.6018 10.6108 21.3863C9.6817 20.5739 8.78589 19.8104 7.99555 19.1369L7.99152 19.1334C5.67436 17.1587 3.67341 15.4535 2.28118 13.7736C0.72489 11.8957 0 10.1151 0 8.16998C0 6.2801 0.648032 4.53657 1.8246 3.26033C3.0152 1.969 4.64888 1.2578 6.42522 1.2578C7.75287 1.2578 8.96874 1.67754 10.039 2.50526C10.5791 2.92307 11.0687 3.4344 11.5 4.03085C11.9315 3.4344 12.4209 2.92307 12.9612 2.50526C14.0314 1.67754 15.2473 1.2578 16.5749 1.2578C18.3511 1.2578 19.9849 1.969 21.1755 3.26033C22.3521 4.53657 23 6.2801 23 8.16998C23 10.1151 22.2752 11.8957 20.7189 13.7735C19.3267 15.4535 17.3259 17.1586 15.0091 19.133C14.2174 19.8075 13.3202 20.5723 12.3889 21.3867C12.1431 21.6018 11.8272 21.7204 11.5 21.7204ZM6.42522 2.6051C5.02966 2.6051 3.74764 3.16206 2.81498 4.17351C1.86847 5.20022 1.34713 6.61947 1.34713 8.16998C1.34713 9.80594 1.95515 11.2691 3.31842 12.914C4.63607 14.504 6.59596 16.1741 8.86521 18.1081L8.86942 18.1116C9.66275 18.7877 10.5621 19.5542 11.498 20.3726C12.4397 19.5526 13.3404 18.7849 14.1353 18.1077C16.4044 16.1738 18.3641 14.504 19.6817 12.914C21.0448 11.2691 21.6528 9.80594 21.6528 8.16998C21.6528 6.61947 21.1315 5.20022 20.185 4.17351C19.2525 3.16206 17.9703 2.6051 16.5749 2.6051C15.5526 2.6051 14.614 2.93008 13.7852 3.57092C13.0466 4.14227 12.5321 4.86453 12.2305 5.3699C12.0754 5.62978 11.8023 5.7849 11.5 5.7849C11.1976 5.7849 10.9246 5.62978 10.7695 5.3699C10.468 4.86453 9.95351 4.14227 9.21476 3.57092C8.38599 2.93008 7.44737 2.6051 6.42522 2.6051Z" fill="#070A0C"/>
</svg>
