<svg width="16" height="17" viewBox="0 0 16 17" fill="none" xmlns="http://www.w3.org/2000/svg">
<path d="M12.6481 1.07308L8.00006 5.72133C6.45081 4.17258 4.90106 2.62233 3.35156 1.07308C1.55906 -0.719418 -1.21944 2.06008 0.571557 3.85308C2.12131 5.40133 3.67156 6.95183 5.21956 8.50108C3.67085 10.051 2.12152 11.6004 0.571557 13.1491C-1.21944 14.9411 1.55931 17.7198 3.35156 15.9291C4.90081 14.3793 6.45056 12.8293 7.99981 11.2806L12.6478 15.9291C14.4403 17.7211 17.2196 14.9413 15.4278 13.1491C13.8781 11.5993 12.3288 10.0501 10.7786 8.50058C12.3286 6.95083 13.8778 5.40108 15.4278 3.85158C17.2198 2.06008 14.4406 -0.719418 12.6478 1.07408" fill="#C9CFDD"/>
</svg>
