<svg width="16" height="15" viewBox="0 0 16 15" fill="none" xmlns="http://www.w3.org/2000/svg">
<path d="M11.6272 1.48051C11.8021 1.30557 12.0098 1.1668 12.2384 1.07212C12.467 0.977441 12.712 0.928711 12.9594 0.928711C13.2068 0.928711 13.4517 0.977441 13.6803 1.07212C13.9089 1.1668 14.1166 1.30557 14.2915 1.48051C14.4665 1.65545 14.6052 1.86313 14.6999 2.0917C14.7946 2.32028 14.8433 2.56526 14.8433 2.81266C14.8433 3.06007 14.7946 3.30505 14.6999 3.53362C14.6052 3.76219 14.4665 3.96987 14.2915 4.14482L5.29947 13.1369L1.63605 14.136L2.63516 10.4725L11.6272 1.48051Z" stroke="#3765FF" stroke-width="1.33215" stroke-linecap="round" stroke-linejoin="round"/>
</svg>
