<svg width="14" height="16" viewBox="0 0 14 16" fill="none" xmlns="http://www.w3.org/2000/svg">
<path d="M6.83303 0.813477C7.42104 0.813438 7.98678 1.03841 8.41419 1.44224C8.8416 1.84608 9.09828 2.39816 9.13157 2.98523L9.13511 3.11556H12.8539C12.9885 3.1156 13.118 3.16673 13.2164 3.25862C13.3147 3.35051 13.3745 3.47631 13.3837 3.6106C13.3929 3.74489 13.3507 3.87765 13.2658 3.98206C13.1809 4.08648 13.0595 4.15475 12.9261 4.1731L12.8539 4.17806H12.29L11.3834 13.4006C11.3379 13.8603 11.1306 14.289 10.7983 14.61C10.466 14.931 10.0304 15.1235 9.56932 15.153L9.44465 15.1572H4.2214C3.75919 15.1572 3.31204 14.9928 2.95987 14.6935C2.60769 14.3941 2.37345 13.9793 2.29899 13.5231L2.2827 13.3999L1.37532 4.17806H0.812195C0.683818 4.17805 0.559786 4.13156 0.463036 4.04718C0.366285 3.9628 0.303362 3.84624 0.285903 3.71906L0.280945 3.64681C0.28095 3.51843 0.327442 3.3944 0.411821 3.29765C0.496201 3.2009 0.612761 3.13798 0.739945 3.12052L0.812195 3.11556H4.53094C4.53094 2.50501 4.77349 1.91947 5.20521 1.48774C5.63693 1.05602 6.22248 0.813477 6.83303 0.813477ZM11.2226 4.17806H2.44278L3.34024 13.2957C3.36011 13.4992 3.44976 13.6895 3.59398 13.8343C3.7382 13.9792 3.92809 14.0697 4.13144 14.0905L4.2214 14.0947H9.44465C9.86965 14.0947 10.2302 13.7937 10.3124 13.385L10.3265 13.2957L11.2219 4.17806H11.2226ZM8.07261 6.12598C8.20099 6.12598 8.32502 6.17247 8.42177 6.25685C8.51852 6.34123 8.58144 6.45779 8.5989 6.58498L8.60386 6.65723V11.6156C8.60382 11.7502 8.55269 11.8797 8.4608 11.9781C8.36891 12.0764 8.24311 12.1362 8.10882 12.1454C7.97453 12.1546 7.84177 12.1124 7.73736 12.0275C7.63295 11.9426 7.56467 11.8212 7.54632 11.6878L7.54136 11.6156V6.65723C7.54136 6.51633 7.59733 6.38121 7.69696 6.28158C7.79659 6.18195 7.93172 6.12598 8.07261 6.12598ZM5.59345 6.12598C5.72182 6.12598 5.84585 6.17247 5.9426 6.25685C6.03935 6.34123 6.10228 6.45779 6.11974 6.58498L6.1247 6.65723V11.6156C6.12465 11.7502 6.07352 11.8797 5.98163 11.9781C5.88974 12.0764 5.76394 12.1362 5.62965 12.1454C5.49537 12.1546 5.3626 12.1124 5.25819 12.0275C5.15378 11.9426 5.0855 11.8212 5.06715 11.6878L5.0622 11.6156V6.65723C5.0622 6.51633 5.11817 6.38121 5.21779 6.28158C5.31742 6.18195 5.45255 6.12598 5.59345 6.12598ZM6.83303 1.87598C6.52194 1.87599 6.22222 1.99297 5.99338 2.20371C5.76453 2.41444 5.62329 2.70352 5.59769 3.01356L5.59345 3.11556H8.07261C8.07261 2.7868 7.94201 2.47151 7.70955 2.23904C7.47708 2.00658 7.16179 1.87598 6.83303 1.87598Z" fill="#3765FF"/>
</svg>
